<svg xmlns="http://www.w3.org/2000/svg" xmlns:xlink="http://www.w3.org/1999/xlink" viewBox="0 0 300 82"><ellipse cx="36.7" cy="39.1" rx="36.7" ry="37.1" fill-rule="evenodd" clip-rule="evenodd" fill="#fff"/><defs><path id="a" d="M87.8 18.4h5.6v33.7c0 3.7 1.4 4.4 3.1 4.4.5 0 1-.1 1-.1v5.3s-.9.1-1.8.1c-3.2 0-7.8-.9-7.8-8.7V18.4h-.1z"/></defs><use xlink:href="#a" overflow="visible" fill-rule="evenodd" clip-rule="evenodd" fill="#888a8c"/><defs><path id="b" d="M115.9 29.9c8.8 0 13.4 6.6 13.4 14.7 0 .8-.2 2.6-.2 2.6h-22.6c.3 6.9 5.2 10.3 10.7 10.3 5.3 0 9.2-3.7 9.2-3.7l2.5 4.4s-4.6 4.5-12 4.5c-9.8 0-16.4-7.1-16.4-16.4-.2-9.9 6.5-16.4 15.4-16.4zm7.3 12.8c-.2-5.4-3.5-8-7.5-8-4.5 0-8.2 2.8-9.1 8h16.6z"/></defs><use xlink:href="#b" overflow="visible" fill-rule="evenodd" clip-rule="evenodd" fill="#888a8c"/><defs><path id="c" d="M150 42.4h1.4v-.6c0-5.1-2.9-6.9-6.8-6.9-4.8 0-8.7 3-8.7 3l-2.5-4.4s4.5-3.7 11.6-3.7c7.9 0 12.3 4.3 12.3 12.3V62h-5.5v-3c0-1.4.1-2.5.1-2.5h-.1s-2.5 6.2-10 6.2c-5.3 0-10.6-3.3-10.6-9.5 0-10.3 13.5-10.8 18.8-10.8m-6.9 15.5c5 0 8.3-5.3 8.3-10v-1h-1.5c-4.5 0-12.6.3-12.6 5.9-.1 2.6 1.9 5.1 5.8 5.1"/></defs><use xlink:href="#c" overflow="visible" fill-rule="evenodd" clip-rule="evenodd" fill="#888a8c"/><defs><path id="d" d="M163.1 30.7h5.4v2.6c0 1.2-.1 2.2-.1 2.2h.1s2.6-5.6 10.2-5.6c8.2 0 13.4 6.5 13.4 16 0 9.7-5.8 16-13.8 16-6.7 0-9.3-5-9.3-5h-.1s.1 1.1.1 2.7v13.7h-5.8V30.7h-.1zM177.3 57c4.8 0 8.8-4 8.8-10.9 0-6.7-3.5-10.9-8.6-10.9-4.6 0-8.8 3.2-8.8 11 0 5.3 3 10.8 8.6 10.8z"/></defs><use xlink:href="#d" overflow="visible" fill-rule="evenodd" clip-rule="evenodd" fill="#888a8c"/><defs><path id="e" d="M197.9 36.1h-4v-4.8h4v-1.5c0-10.2 8-11.5 12-11.5 1.4 0 2.3.2 2.3.2v5.1s-.6-.1-1.6-.1c-2.3 0-6.7.7-6.7 6.5v1.3h7.6v4.8H204v25.7h-6.1V36.1z"/></defs><use xlink:href="#e" overflow="visible" fill-rule="evenodd" clip-rule="evenodd" fill="#888a8c"/><defs><path id="f" d="M65.7 16.5c-4.5 2.8-9.8 6-12.7 9.4-.6.7-1.2 1.5-1.7 2.2 0 1.6-1.2 2.9-2.7 3.1-.1 1.2-.2 2.5-.2 3.6-.4 5.6.3 13.3.8 19 0 1.7-1.4 3.1-3.1 3.1S43 55.7 43 54c.9-3.3 1.8-7.3 2.5-11.1-1.5-1.6-2.3-2.1-5.5-1.3L46.8 31c-.1-.1-.2-.1-.3-.2-1.3 1.4-2.7 2.9-4.1 4.3C36.5 41.3 26.2 55 26.2 55s-1.8 2.3-3.5 2.3-3.1-1.4-3.1-3.1c0-1.1.8-2.4 2.5-3.8C28 46 32.8 42.1 36.5 38.9c.5-2.2.9-3.5-3.5-5.2l12.3-4.1c-.1-.1-.1-.2-.2-.4-3.4.4-6.9 1.1-10.3 1.7-3.3.7-8.8 2.1-12.1 2.5-1.7 0-3.1-1.4-3.1-3.1 0-1.7 1.4-3.1 3.1-3.1 2.8.3 7 .6 12.7 1 4.5.1 7.7.1 9.7-.2.2-1.6 1.5-2.8 3.1-2.8 4-3.4 8.6-9.5 12.1-14.4C53.9 5.3 45.7 2 36.7 2 16.4 2 0 18.6 0 39.1s16.4 37.1 36.7 37.1c20.2 0 36.7-16.6 36.7-37.1-.1-8.5-2.9-16.3-7.7-22.6"/></defs><use xlink:href="#f" overflow="visible" fill-rule="evenodd" clip-rule="evenodd" fill="#00cb5b"/><path d="M238.2 30.3h-7.8c-5 .1-8.7 3.6-10.2 8.1h-.1s.1-1 .1-2.3v-5.4h-6v31.1h6.2V49.1c0-1.9.2-3.8.8-5.6 1.5-4.6 5.1-7.3 9-7.3h2.9c1.2-2.4 3-4.3 5.1-5.9z" fill-rule="evenodd" clip-rule="evenodd" fill="#888a8c"/><defs><path id="g" d="M250.4 29c9.3 0 16.9 6.9 16.9 16.3 0 9.5-7.5 16.5-16.9 16.5-9.3 0-16.9-6.9-16.9-16.5 0-9.5 7.5-16.3 16.9-16.3m0 27.6c5.9 0 10.8-4.7 10.8-11.3 0-6.5-4.8-11.1-10.8-11.1-5.9 0-10.8 4.6-10.8 11.1 0 6.6 4.9 11.3 10.8 11.3"/></defs><use xlink:href="#g" overflow="visible" fill-rule="evenodd" clip-rule="evenodd" fill="#888a8c"/><defs><path id="h" d="M282.4 70.1c5.4 0 9.8-2.4 9.8-8.8V59c0-1 .1-2 .1-2h-.1c-1.8 3.1-4.7 4.9-9.2 4.9-8.6 0-13.8-7-13.8-16.1 0-9 4.9-15.8 13.5-15.8 7.5 0 9.7 4.7 9.7 4.7h.1s-.1-.4-.1-1v-2.9h5.7V61c0 10.4-7.8 14.4-15.6 14.4-3.7 0-7.6-1.1-10.6-2.6l2-4.7c.1-.2 3.9 2 8.5 2m9.9-24.3c0-8.2-3.9-10.6-8.7-10.6-5.4 0-8.4 4-8.4 10.4 0 6.5 3.4 11 9 11 4.2 0 8.1-2.6 8.1-10.8"/></defs><use xlink:href="#h" overflow="visible" fill-rule="evenodd" clip-rule="evenodd" fill="#888a8c"/></svg>